<?xml version="1.0" standalone="no"?>
<!DOCTYPE svg PUBLIC "-//W3C//DTD SVG 20010904//EN"
 "http://www.w3.org/TR/2001/REC-SVG-20010904/DTD/svg10.dtd">
<svg version="1.0" xmlns="http://www.w3.org/2000/svg"
 width="512.000000pt" height="512.000000pt" viewBox="0 0 512.000000 512.000000"
 preserveAspectRatio="xMidYMid meet">
<metadata>
Created by potrace 1.14, written by Peter Selinger 2001-2017
</metadata>
<g transform="translate(0.000000,512.000000) scale(0.100000,-0.100000)"
fill="#000000" stroke="none">
<path d="M3010 4556 c-63 -24 -259 -96 -435 -160 -176 -65 -330 -122 -341
-128 -16 -7 -23 -23 -27 -57 -4 -25 -9 -57 -12 -71 -3 -14 -8 -41 -11 -60 -2
-19 -9 -57 -14 -85 -5 -27 -12 -63 -14 -80 -5 -33 -73 -425 -80 -465 -6 -28
-34 -199 -42 -245 -8 -49 -29 -175 -39 -225 -8 -46 -65 -375 -70 -410 -3 -19
-16 -94 -29 -167 l-23 -132 21 -18 c12 -10 59 -49 106 -88 47 -38 91 -75 98
-82 7 -7 33 -29 57 -49 25 -20 45 -39 45 -43 0 -4 -24 -15 -52 -25 -29 -10
-131 -47 -226 -82 l-172 -64 -201 167 c-166 137 -199 170 -195 187 3 12 21
118 41 236 19 118 39 224 44 235 6 14 39 31 102 54 238 86 227 80 234 125 4
23 9 55 12 71 49 282 59 345 57 345 -2 0 -373 -135 -614 -224 -152 -56 -152
-56 -157 -87 -2 -13 -19 -114 -38 -224 -19 -110 -37 -216 -40 -235 -3 -19 -12
-71 -20 -115 -8 -44 -16 -93 -18 -110 -3 -16 -10 -57 -16 -90 -6 -33 -13 -73
-16 -90 -2 -16 -7 -40 -9 -52 -4 -18 27 -48 186 -180 105 -87 205 -170 222
-184 17 -15 102 -86 188 -158 l158 -131 72 26 c40 14 82 30 93 35 33 14 646
240 692 255 24 7 58 20 75 28 18 8 74 29 123 46 131 47 617 226 786 289 l56
21 17 103 c10 56 20 113 22 127 3 14 12 64 20 112 l16 88 33 -28 c18 -15 103
-85 189 -157 142 -118 156 -132 151 -155 -4 -14 -9 -38 -11 -55 -2 -16 -6 -41
-9 -55 -3 -14 -14 -81 -26 -149 -11 -68 -23 -134 -25 -145 -2 -12 -7 -35 -10
-51 -5 -30 -12 -33 -232 -114 -125 -45 -234 -85 -243 -88 -11 -3 -61 33 -140
99 -68 57 -130 107 -136 112 -7 4 -97 -24 -205 -64 -241 -88 -243 -89 -232
-99 5 -4 115 -95 244 -202 295 -244 275 -227 324 -271 22 -21 45 -38 50 -38
13 0 910 330 919 339 4 4 12 32 17 62 5 30 16 92 24 139 12 68 52 303 71 418
2 12 6 30 9 40 3 9 8 37 11 62 3 25 13 91 23 147 l18 101 -454 379 c-251 208
-460 383 -466 388 -6 6 -42 36 -81 67 -38 31 -79 65 -90 75 -11 10 -56 47
-100 83 -44 35 -82 67 -85 70 -3 3 -30 25 -60 50 -30 25 -57 47 -60 50 -3 3
-40 34 -82 69 l-77 63 -191 -71 c-105 -39 -197 -71 -205 -71 -13 0 -13 25 0
70 3 8 7 33 10 55 3 22 15 90 25 150 11 61 22 128 26 150 3 22 9 43 12 47 4 3
114 45 245 93 213 79 239 86 255 73 9 -8 98 -82 198 -165 154 -127 180 -153
178 -174 -4 -28 -22 -135 -28 -165 -2 -12 -7 -39 -10 -60 -4 -22 -9 -52 -12
-69 -4 -26 0 -35 37 -65 24 -19 104 -86 178 -147 152 -125 141 -124 155 -20 3
23 8 52 11 65 2 13 14 79 25 147 11 68 23 134 26 147 2 13 7 37 9 53 3 17 10
55 15 85 5 30 12 73 16 95 3 22 9 57 14 78 9 44 60 -4 -420 396 -179 149 -329
270 -335 270 -5 0 -62 -19 -125 -43z m140 -1656 c3 -3 43 -37 90 -75 47 -38
90 -74 96 -80 6 -5 70 -59 142 -119 73 -59 132 -111 132 -115 0 -3 -73 -33
-163 -65 -89 -33 -175 -65 -192 -71 -16 -7 -104 -40 -195 -73 -91 -33 -295
-109 -455 -167 -159 -59 -307 -113 -328 -121 l-39 -14 6 43 c3 23 8 51 10 62
2 11 7 40 11 65 4 25 9 54 11 65 6 28 14 75 19 105 2 14 15 93 30 175 14 83
28 164 31 180 2 17 9 55 14 85 10 56 11 63 25 135 4 22 9 51 10 65 11 75 76
440 81 453 4 12 90 -54 332 -256 180 -149 329 -274 332 -277z"/>
</g>
</svg>
